<svg xmlns="http://www.w3.org/2000/svg"
 xmlns:xlink="http://www.w3.org/1999/xlink"
 width="32px" height="70px"  viewBox="0 0 32 70">
<path fill-rule="evenodd"  fill="#e4e4e4"
 d="M5.159668,68.30664 C4.7995605,68.768555 4.349365,69.0 3.854004,69.0 C3.3588867,69.0 2.9085693,68.768555 2.5483398,68.30664 C1.828125,67.381836 1.828125,65.879395 2.5483398,64.95508 C2.5483398,64.95508 25.509766,35.48535 25.509766,35.48535 C25.509766,35.48535 2.5483398,6.015625 2.5483398,6.015625 C1.828125,5.0908203 1.828125,3.588379 2.5483398,2.6640625 C3.2687988,1.7397461 4.439331,1.7397461 5.159668,2.6640625 C5.159668,2.6640625 29.426758,33.80957 29.426758,33.80957 C30.147217,34.734375 30.147217,36.23633 29.426758,37.161133 C29.426758,37.161133 5.159668,68.30664 5.159668,68.30664 Z"/>
</svg>