<svg xmlns="http://www.w3.org/2000/svg"
 xmlns:xlink="http://www.w3.org/1999/xlink"
 width="32px" height="70px"  viewBox="0 0 32 70">
<path fill-rule="evenodd"  fill="#e4e4e4"
 d="M26.84021,68.30664 C27.200356,68.768555 27.650566,69.0 28.145866,69.0 C28.641052,69.0 29.091263,68.768555 29.451523,68.30664 C30.171814,67.381836 30.171814,65.879395 29.451523,64.95508 C29.451523,64.95508 6.490097,35.48535 6.490097,35.48535 C6.490097,35.48535 29.451523,6.015625 29.451523,6.015625 C30.171814,5.0908203 30.171814,3.588379 29.451523,2.6640625 C28.731117,1.7397461 27.560501,1.7397461 26.84021,2.6640625 C26.84021,2.6640625 2.5731277,33.80957 2.5731277,33.80957 C1.8527222,34.734375 1.8527222,36.23633 2.5731277,37.161133 C2.5731277,37.161133 26.84021,68.30664 26.84021,68.30664 Z"/>
</svg>