<svg xmlns="http://www.w3.org/2000/svg"
 xmlns:xlink="http://www.w3.org/1999/xlink"
 width="31px" height="22px"  viewBox="0 0 31 22">
<path fill-rule="evenodd"  fill="#ffffff"
 d="M24.049805,16.026855 C23.94165,16.026855 23.833618,15.987305 23.74939,15.906738 C23.74939,15.906738 18.69519,11.163086 18.69519,11.163086 C18.518677,10.997559 18.509888,10.719238 18.675903,10.54248 C18.841919,10.364258 19.118652,10.355957 19.296875,10.522949 C19.296875,10.522949 24.351074,15.26709 24.351074,15.26709 C24.527588,15.432617 24.536499,15.7109375 24.370361,15.887695 C24.283447,15.97998 24.16748,16.026855 24.049805,16.026855 ZM7.178833,16.026855 C7.0620117,16.026855 6.9451904,15.97998 6.8581543,15.887695 C6.6921387,15.7109375 6.7009277,15.432617 6.8775635,15.26709 C6.8775635,15.26709 11.933472,10.522949 11.933472,10.522949 C12.110962,10.35791 12.389404,10.364746 12.554443,10.54248 C12.720581,10.719238 12.71167,10.997559 12.535156,11.163086 C12.535156,11.163086 7.479248,15.906738 7.479248,15.906738 C7.3948975,15.987305 7.286865,16.026855 7.178833,16.026855 ZM27.03894,20.4375 C27.03894,20.4375 4.1905518,20.4375 4.1905518,20.4375 C2.9801025,20.4375 1.9946289,19.452148 1.9946289,18.240234 C1.9946289,18.240234 1.9946289,3.2583008 1.9946289,3.2583008 C1.9946289,2.0463867 2.9801025,1.0610352 4.1905518,1.0610352 C4.1905518,1.0610352 27.03894,1.0610352 27.03894,1.0610352 C28.249268,1.0610352 29.234863,2.0463867 29.234863,3.2583008 C29.234863,3.2583008 29.234863,18.240234 29.234863,18.240234 C29.234863,19.452148 28.249268,20.4375 27.03894,20.4375 ZM4.1905518,1.9399414 C3.4641113,1.9399414 2.8730469,2.53125 2.8730469,3.2583008 C2.8730469,3.2583008 2.8730469,18.240234 2.8730469,18.240234 C2.8730469,18.967285 3.4641113,19.559082 4.1905518,19.559082 C4.1905518,19.559082 27.03894,19.559082 27.03894,19.559082 C27.765259,19.559082 28.356445,18.967285 28.356445,18.240234 C28.356445,18.240234 28.356445,3.2583008 28.356445,3.2583008 C28.356445,2.53125 27.765259,1.9399414 27.03894,1.9399414 C27.03894,1.9399414 4.1905518,1.9399414 4.1905518,1.9399414 ZM15.614746,12.95752 C15.03064,12.95752 14.446533,12.763672 14.002075,12.375977 C14.002075,12.375977 2.7236328,2.53125 2.7236328,2.53125 C2.5410156,2.3720703 2.5217285,2.0947266 2.680664,1.9111328 C2.8414307,1.7280273 3.118042,1.7114258 3.3007812,1.8686523 C3.3007812,1.8686523 14.579224,11.712402 14.579224,11.712402 C15.140381,12.20166 16.089111,12.20166 16.649536,11.712402 C16.649536,11.712402 27.913696,1.8847656 27.913696,1.8847656 C28.095581,1.7255859 28.372314,1.7431641 28.533936,1.9267578 C28.692993,2.1103516 28.674438,2.387207 28.4917,2.5473633 C28.4917,2.5473633 17.227417,12.375 17.227417,12.375 C16.782104,12.763672 16.198853,12.95752 15.614746,12.95752 Z"/>
</svg>