<svg xmlns="http://www.w3.org/2000/svg"
 xmlns:xlink="http://www.w3.org/1999/xlink"
 width="24px" height="24px"  viewBox="0 0 24 24">
<path fill-rule="evenodd"  fill="#ffffff"
 d="M18.45752,22.893555 C17.579834,22.893555 16.519897,22.67334 15.354248,22.232422 C12.798706,21.267578 10.018188,19.360352 7.5251465,16.863281 C5.03125,14.365234 3.1269531,11.57959 2.1628418,9.02002 C1.2867432,6.692383 1.2845459,4.782715 2.157959,3.9082031 C2.2834473,3.7827148 2.4111328,3.647461 2.5430908,3.5083008 C3.3398438,2.6689453 4.2402344,1.7246094 5.4335938,1.7670898 C6.2558594,1.8012695 7.0526123,2.3129883 7.8685303,3.3300781 C10.279297,6.333008 9.192383,7.4033203 7.9344482,8.644043 C7.9344482,8.644043 7.7124023,8.864258 7.7124023,8.864258 C7.506714,9.0703125 7.11792,10.024902 10.734863,13.647461 C11.915405,14.830078 12.922119,15.695801 13.726807,16.219238 C14.233276,16.548828 15.139282,17.047852 15.510986,16.675781 C15.510986,16.675781 15.734497,16.449707 15.734497,16.449707 C16.971802,15.192383 18.040405,14.107422 21.036621,16.52002 C22.051758,17.336914 22.56189,18.134766 22.595947,18.959473 C22.644897,20.153809 21.694946,21.058105 20.856323,21.855469 C20.718018,21.987793 20.58313,22.115723 20.457642,22.240723 C20.024048,22.675293 19.330933,22.893555 18.45752,22.893555 ZM5.3483887,2.4765625 C4.5006104,2.4765625 3.7349854,3.2836914 3.057495,3.9980469 C2.9212646,4.1416016 2.7893066,4.2807617 2.659546,4.4106445 C2.0089111,5.0615234 2.074829,6.772461 2.8269043,8.77002 C3.7563477,11.237305 5.6031494,13.933105 8.027466,16.361328 C10.45105,18.788574 13.141357,20.638184 15.605469,21.56836 C17.599731,22.323242 19.307495,22.387207 19.956665,21.736816 C20.086426,21.606934 20.225464,21.47461 20.368896,21.338867 C21.097534,20.64502 21.924072,19.858887 21.88794,18.987305 C21.863037,18.388184 21.427368,17.743652 20.59314,17.072266 C18.096436,15.061035 17.398193,15.770996 16.240479,16.946777 C16.240479,16.946777 16.013428,17.176758 16.013428,17.176758 C15.459961,17.731445 14.561035,17.608887 13.340698,16.813965 C12.494385,16.262695 11.448608,15.365723 10.233887,14.148926 C7.2321777,11.142578 6.272217,9.302734 7.211548,8.359863 C7.211548,8.359863 7.437866,8.13623 7.437866,8.13623 C8.614868,6.9765625 9.325073,6.276367 7.3165283,3.7739258 C6.6446533,2.9389648 6.001831,2.5029297 5.4038086,2.4770508 C5.385254,2.4765625 5.3668213,2.4765625 5.3483887,2.4765625 Z"/>
</svg>